<svg xmlns="http://www.w3.org/2000/svg" xmlns:xlink="http://www.w3.org/1999/xlink" width="80.03" height="80.026" viewBox="0 0 80.03 80.026">
  <defs>
    <clipPath id="clip-path">
      <rect id="Rectangle_48" data-name="Rectangle 48" width="80.03" height="80.026"/>
    </clipPath>
  </defs>
  <g id="Group_178" data-name="Group 178" transform="translate(-1516.256 176)">
    <g id="I_Heart_NDIS_2020" data-name="I Heart NDIS_2020" transform="translate(1516.256 -176)">
      <g id="Group_176" data-name="Group 176" transform="translate(0 0)">
        <g id="Group_175" data-name="Group 175" transform="translate(0 0)" clip-path="url(#clip-path)">
          <path id="Path_146" data-name="Path 146" d="M41.061,1.47c11.856.019,22.088,4.2,29.752,12.039A39.915,39.915,0,1,1,2.338,41.231a39.562,39.562,0,0,1,12-28.35A38.847,38.847,0,0,1,41.061,1.47" transform="translate(-2.239 -1.444)" fill="#6b2975"/>
        </g>
      </g>
      <g id="Group_177" data-name="Group 177" transform="translate(15.387 11.682)">
        <path id="Path_147" data-name="Path 147" d="M328.5,110.281c.26-.273.513-.557.793-.814a8.675,8.675,0,0,1,3.186-1.937,6.774,6.774,0,0,1,5.125.394,5.7,5.7,0,0,1,1.781,1.4,9.581,9.581,0,0,1,2.253,3.982,8.826,8.826,0,0,1-.147,5.059,13.673,13.673,0,0,1-2.009,3.877,25.324,25.324,0,0,1-3.937,4.228,51.678,51.678,0,0,1-6.741,4.883.519.519,0,0,1-.652,0,55.056,55.056,0,0,1-5.854-4.124,27.933,27.933,0,0,1-4.455-4.472,14.555,14.555,0,0,1-2.279-4.049,9.236,9.236,0,0,1-.536-3.785,8.7,8.7,0,0,1,1.267-3.889,10.826,10.826,0,0,1,1.916-2.34,4.553,4.553,0,0,1,1.183-.778,6.767,6.767,0,0,1,6.607.3,9.8,9.8,0,0,1,2.3,1.885c.047.052.095.1.143.153a.268.268,0,0,0,.051.03" transform="translate(-295.825 -107.196)" fill="#8cc63f"/>
        <path id="Path_148" data-name="Path 148" d="M294.318,405.8c-.122.11-.24.223-.364.329a5.523,5.523,0,0,1-2.608,1.228,6.534,6.534,0,0,1-3.539-.268,5.7,5.7,0,0,1-3.1-2.795,8.94,8.94,0,0,1-.923-2.9,14.025,14.025,0,0,1-.038-3.885,9.281,9.281,0,0,1,1.3-3.882,5.88,5.88,0,0,1,3.885-2.755,5.764,5.764,0,0,1,3.909.432,5.865,5.865,0,0,1,.974.638c.045.036.078.1.174.091v-7.513c0-.394.042-.439.44-.51a6.77,6.77,0,0,1,1.023-.071,19.18,19.18,0,0,1,2.03.04,1.706,1.706,0,0,1,.457.087.3.3,0,0,1,.236.328c0,.062,0,.125,0,.186v18.333a2.479,2.479,0,0,0,.032.442.578.578,0,0,0,.509.53,1.815,1.815,0,0,0,.37.034c.214.008.3.073.333.282a3.154,3.154,0,0,1,.045.487,16.373,16.373,0,0,1-.035,1.726,2.312,2.312,0,0,1-.041.229.386.386,0,0,1-.283.309,5.734,5.734,0,0,1-1.133.266,5.543,5.543,0,0,1-1.581.023,2.541,2.541,0,0,1-2.028-1.391.357.357,0,0,0-.05-.056" transform="translate(-267.908 -353.426)" fill="#fff"/>
        <path id="Path_149" data-name="Path 149" d="M208.351,122.813v7.87c0,.319-.028.282.291.283.506,0,1.012,0,1.518,0h.117c.391.006.482.093.535.487a7.242,7.242,0,0,1,.04,1.048,14.818,14.818,0,0,1-.039,1.656c0,.031-.006.062-.01.093-.052.365-.147.447-.518.447h-9.528c-.054,0-.109,0-.163,0a.3.3,0,0,1-.3-.223,1.638,1.638,0,0,1-.086-.5c-.026-.763-.025-1.525,0-2.287a1.668,1.668,0,0,1,.074-.459.308.308,0,0,1,.3-.245c.117,0,.233-.011.349-.011H202.5c.182,0,.182,0,.185-.175,0-.039,0-.078,0-.117q0-7.858,0-15.717c0-.324.044-.277-.288-.279-.56,0-1.121,0-1.681,0-.31,0-.412-.091-.47-.4a3.633,3.633,0,0,1-.05-.674c0-.607,0-1.215.009-1.821a2.744,2.744,0,0,1,.059-.509c.051-.246.155-.323.406-.333.062,0,.125,0,.187,0h9.459c.338,0,.441.091.486.43a5.256,5.256,0,0,1,.05.744c0,.56,0,1.121-.009,1.681a2.4,2.4,0,0,1-.063.531c-.064.269-.164.347-.442.347-.577,0-1.152,0-1.729,0h-.163c-.069,0-.1.035-.1.1s0,.125,0,.187v7.85" transform="translate(-193.669 -110.525)" fill="#fff"/>
        <path id="Path_150" data-name="Path 150" d="M145.134,447.374c.117-.115.215-.212.315-.306a5.666,5.666,0,0,1,3.058-1.489,6.722,6.722,0,0,1,3.338.278,4.725,4.725,0,0,1,3.077,3.373,8.812,8.812,0,0,1,.306,2.306c.044,3.276.009,6.554.019,9.83,0,.321-.071.414-.387.48a3.31,3.31,0,0,1-.532.064c-.809.037-1.617.032-2.426,0a2.581,2.581,0,0,1-.622-.091.287.287,0,0,1-.235-.3c0-.069,0-.14,0-.211q0-4.356,0-8.711a9.614,9.614,0,0,0-.118-1.58,1.914,1.914,0,0,0-1.587-1.677,4.558,4.558,0,0,0-2.461.137,1.859,1.859,0,0,0-1.382,1.813c-.034.583-.054,1.165-.055,1.75q0,4.123,0,8.244c0,.054,0,.109,0,.163-.007.225-.064.309-.278.374a3.2,3.2,0,0,1-.831.1q-1.108.036-2.217-.01a3.577,3.577,0,0,1-.509-.057c-.3-.056-.359-.134-.359-.439q0-4.169,0-8.338c0-1.275-.026-2.552-.071-3.826-.033-.964-.068-1.927-.152-2.888a.372.372,0,0,1,.335-.472,3.667,3.667,0,0,1,.857-.087,19.617,19.617,0,0,1,2.053.034c.046,0,.094.007.139.014.362.057.487.165.561.524.068.323.112.647.171,1" transform="translate(-141.014 -408.192)" fill="#fff"/>
        <path id="Path_151" data-name="Path 151" d="M496.564,445.579a8.8,8.8,0,0,1,3.845.814,6.762,6.762,0,0,1,1.118.672.416.416,0,0,1,.184.562,2.8,2.8,0,0,1-.28.589c-.258.434-.524.864-.79,1.294a1.648,1.648,0,0,1-.293.362.371.371,0,0,1-.507.06c-.261-.153-.521-.309-.795-.442a5.233,5.233,0,0,0-2.318-.546,3.894,3.894,0,0,0-1.6.277,1.575,1.575,0,0,0-.546.39,1,1,0,0,0,.121,1.5,3.171,3.171,0,0,0,.858.466c.609.239,1.239.409,1.862.6a13.459,13.459,0,0,1,2.195.843,5.176,5.176,0,0,1,1.494,1.1,3.784,3.784,0,0,1,.981,2.272,5.119,5.119,0,0,1-1.333,4.041,5.44,5.44,0,0,1-2.612,1.554,9,9,0,0,1-2.186.326,10.417,10.417,0,0,1-3.589-.472,7.482,7.482,0,0,1-2.43-1.261.507.507,0,0,1-.214-.688,1.3,1.3,0,0,1,.047-.131,13.159,13.159,0,0,1,1.045-1.871,1.264,1.264,0,0,1,.1-.128c.251-.287.395-.306.719-.1a7.8,7.8,0,0,0,2.922,1.174,4.855,4.855,0,0,0,2.331-.131,2.082,2.082,0,0,0,.695-.374,1.018,1.018,0,0,0-.047-1.688,4.375,4.375,0,0,0-1.291-.583c-.724-.233-1.465-.417-2.185-.664a7.747,7.747,0,0,1-2.222-1.108,4.046,4.046,0,0,1-1.616-2.934,5.1,5.1,0,0,1,.3-2.452,4.748,4.748,0,0,1,2.049-2.347,7.077,7.077,0,0,1,2.791-.921,9.142,9.142,0,0,1,1.189-.066" transform="translate(-451.241 -408.275)" fill="#fff"/>
        <path id="Path_152" data-name="Path 152" d="M442.048,456.349V448.9c0-.417.047-.485.462-.546a6.061,6.061,0,0,1,.837-.058c.739,0,1.478-.034,2.216.035a2.154,2.154,0,0,1,.434.08.315.315,0,0,1,.249.324c0,.062,0,.125,0,.186v14.869c0,.428-.073.506-.5.571a6.084,6.084,0,0,1-.861.055,18.438,18.438,0,0,1-2.354-.054c-.031,0-.062,0-.093-.01-.317-.057-.392-.142-.394-.467q0-1.751,0-3.5Z" transform="translate(-408.861 -410.686)" fill="#fff"/>
        <path id="Path_153" data-name="Path 153" d="M438.8,389.378a2.684,2.684,0,1,1,2.708-2.635,2.686,2.686,0,0,1-2.708,2.635" transform="translate(-403.578 -353.493)" fill="#8cc63f"/>
        <path id="Path_154" data-name="Path 154" d="M328.819,482.954c0,.825,0,1.649,0,2.474a5.383,5.383,0,0,1-.064.882,1.5,1.5,0,0,1-.768,1.109,3.651,3.651,0,0,1-1.389.446,3.827,3.827,0,0,1-1.793-.183,2.568,2.568,0,0,1-1.422-1.311,5.153,5.153,0,0,1-.514-1.686,10.384,10.384,0,0,1,.088-3.365,5.082,5.082,0,0,1,.421-1.3,2.786,2.786,0,0,1,2.711-1.668,3.459,3.459,0,0,1,2.664,1.332.354.354,0,0,1,.066.261v3.012Z" transform="translate(-302.733 -437.433)" fill="#6b2976"/>
      </g>
    </g>
  </g>
</svg>
